<svg width="246" height="70" viewBox="0 0 246 70" fill="none" xmlns="http://www.w3.org/2000/svg">
<path d="M39.4375 45.1875V47.3438C39.4375 50.8021 38.9688 53.9062 38.0312 56.6562C37.0938 59.4062 35.7708 61.75 34.0625 63.6875C32.3542 65.6042 30.3125 67.0729 27.9375 68.0938C25.5833 69.1146 22.9688 69.625 20.0938 69.625C17.2396 69.625 14.625 69.1146 12.25 68.0938C9.89583 67.0729 7.85417 65.6042 6.125 63.6875C4.39583 61.75 3.05208 59.4062 2.09375 56.6562C1.15625 53.9062 0.6875 50.8021 0.6875 47.3438V45.1875C0.6875 41.7083 1.15625 38.6042 2.09375 35.875C3.03125 33.125 4.35417 30.7812 6.0625 28.8438C7.79167 26.9062 9.83333 25.4271 12.1875 24.4062C14.5625 23.3854 17.1771 22.875 20.0312 22.875C22.9062 22.875 25.5208 23.3854 27.875 24.4062C30.25 25.4271 32.2917 26.9062 34 28.8438C35.7292 30.7812 37.0625 33.125 38 35.875C38.9583 38.6042 39.4375 41.7083 39.4375 45.1875ZM29.9688 47.3438V45.125C29.9688 42.7083 29.75 40.5833 29.3125 38.75C28.875 36.9167 28.2292 35.375 27.375 34.125C26.5208 32.875 25.4792 31.9375 24.25 31.3125C23.0208 30.6667 21.6146 30.3438 20.0312 30.3438C18.4479 30.3438 17.0417 30.6667 15.8125 31.3125C14.6042 31.9375 13.5729 32.875 12.7188 34.125C11.8854 35.375 11.25 36.9167 10.8125 38.75C10.375 40.5833 10.1562 42.7083 10.1562 45.125V47.3438C10.1562 49.7396 10.375 51.8646 10.8125 53.7188C11.25 55.5521 11.8958 57.1042 12.75 58.375C13.6042 59.625 14.6458 60.5729 15.875 61.2188C17.1042 61.8646 18.5104 62.1875 20.0938 62.1875C21.6771 62.1875 23.0833 61.8646 24.3125 61.2188C25.5417 60.5729 26.5729 59.625 27.4062 58.375C28.2396 57.1042 28.875 55.5521 29.3125 53.7188C29.75 51.8646 29.9688 49.7396 29.9688 47.3438ZM54.625 42.5625V69H45.625V35.1875H54.0938L54.625 42.5625ZM64.8125 34.9688L64.6562 43.3125C64.2188 43.25 63.6875 43.1979 63.0625 43.1562C62.4583 43.0938 61.9062 43.0625 61.4062 43.0625C60.1354 43.0625 59.0312 43.2292 58.0938 43.5625C57.1771 43.875 56.4062 44.3438 55.7812 44.9688C55.1771 45.5938 54.7188 46.3542 54.4062 47.25C54.1146 48.1458 53.9479 49.1667 53.9062 50.3125L52.0938 49.75C52.0938 47.5625 52.3125 45.5521 52.75 43.7188C53.1875 41.8646 53.8229 40.25 54.6562 38.875C55.5104 37.5 56.5521 36.4375 57.7812 35.6875C59.0104 34.9375 60.4167 34.5625 62 34.5625C62.5 34.5625 63.0104 34.6042 63.5312 34.6875C64.0521 34.75 64.4792 34.8438 64.8125 34.9688ZM86.25 61.375V46.3125C86.25 45.2292 86.0729 44.3021 85.7188 43.5312C85.3646 42.7396 84.8125 42.125 84.0625 41.6875C83.3333 41.25 82.3854 41.0312 81.2188 41.0312C80.2188 41.0312 79.3542 41.2083 78.625 41.5625C77.8958 41.8958 77.3333 42.3854 76.9375 43.0312C76.5417 43.6562 76.3438 44.3958 76.3438 45.25H67.3438C67.3438 43.8125 67.6771 42.4479 68.3438 41.1562C69.0104 39.8646 69.9792 38.7292 71.25 37.75C72.5208 36.75 74.0312 35.9688 75.7812 35.4062C77.5521 34.8438 79.5312 34.5625 81.7188 34.5625C84.3438 34.5625 86.6771 35 88.7188 35.875C90.7604 36.75 92.3646 38.0625 93.5312 39.8125C94.7188 41.5625 95.3125 43.75 95.3125 46.375V60.8438C95.3125 62.6979 95.4271 64.2188 95.6562 65.4062C95.8854 66.5729 96.2188 67.5938 96.6562 68.4688V69H87.5625C87.125 68.0833 86.7917 66.9375 86.5625 65.5625C86.3542 64.1667 86.25 62.7708 86.25 61.375ZM87.4375 48.4062L87.5 53.5H82.4688C81.2812 53.5 80.25 53.6354 79.375 53.9062C78.5 54.1771 77.7812 54.5625 77.2188 55.0625C76.6562 55.5417 76.2396 56.1042 75.9688 56.75C75.7188 57.3958 75.5938 58.1042 75.5938 58.875C75.5938 59.6458 75.7708 60.3438 76.125 60.9688C76.4792 61.5729 76.9896 62.0521 77.6562 62.4062C78.3229 62.7396 79.1042 62.9062 80 62.9062C81.3542 62.9062 82.5312 62.6354 83.5312 62.0938C84.5312 61.5521 85.3021 60.8854 85.8438 60.0938C86.4062 59.3021 86.6979 58.5521 86.7188 57.8438L89.0938 61.6562C88.7604 62.5104 88.3021 63.3958 87.7188 64.3125C87.1562 65.2292 86.4375 66.0938 85.5625 66.9062C84.6875 67.6979 83.6354 68.3542 82.4062 68.875C81.1771 69.375 79.7188 69.625 78.0312 69.625C75.8854 69.625 73.9375 69.1979 72.1875 68.3438C70.4583 67.4688 69.0833 66.2708 68.0625 64.75C67.0625 63.2083 66.5625 61.4583 66.5625 59.5C66.5625 57.7292 66.8958 56.1562 67.5625 54.7812C68.2292 53.4062 69.2083 52.25 70.5 51.3125C71.8125 50.3542 73.4479 49.6354 75.4062 49.1562C77.3646 48.6562 79.6354 48.4062 82.2188 48.4062H87.4375ZM116.219 62.5938C117.323 62.5938 118.302 62.3854 119.156 61.9688C120.01 61.5312 120.677 60.9271 121.156 60.1562C121.656 59.3646 121.917 58.4375 121.938 57.375H130.406C130.385 59.75 129.75 61.8646 128.5 63.7188C127.25 65.5521 125.573 67 123.469 68.0625C121.365 69.1042 119.01 69.625 116.406 69.625C113.781 69.625 111.49 69.1875 109.531 68.3125C107.594 67.4375 105.979 66.2292 104.688 64.6875C103.396 63.125 102.427 61.3125 101.781 59.25C101.135 57.1667 100.812 54.9375 100.812 52.5625V51.6562C100.812 49.2604 101.135 47.0312 101.781 44.9688C102.427 42.8854 103.396 41.0729 104.688 39.5312C105.979 37.9688 107.594 36.75 109.531 35.875C111.469 35 113.74 34.5625 116.344 34.5625C119.115 34.5625 121.542 35.0938 123.625 36.1562C125.729 37.2188 127.375 38.7396 128.562 40.7188C129.771 42.6771 130.385 45 130.406 47.6875H121.938C121.917 46.5625 121.677 45.5417 121.219 44.625C120.781 43.7083 120.135 42.9792 119.281 42.4375C118.448 41.875 117.417 41.5938 116.188 41.5938C114.875 41.5938 113.802 41.875 112.969 42.4375C112.135 42.9792 111.49 43.7292 111.031 44.6875C110.573 45.625 110.25 46.6979 110.062 47.9062C109.896 49.0938 109.812 50.3438 109.812 51.6562V52.5625C109.812 53.875 109.896 55.1354 110.062 56.3438C110.229 57.5521 110.542 58.625 111 59.5625C111.479 60.5 112.135 61.2396 112.969 61.7812C113.802 62.3229 114.885 62.5938 116.219 62.5938ZM134.188 52.4375V51.7812C134.188 49.3021 134.542 47.0208 135.25 44.9375C135.958 42.8333 136.99 41.0104 138.344 39.4688C139.698 37.9271 141.365 36.7292 143.344 35.875C145.323 35 147.594 34.5625 150.156 34.5625C152.719 34.5625 155 35 157 35.875C159 36.7292 160.677 37.9271 162.031 39.4688C163.406 41.0104 164.448 42.8333 165.156 44.9375C165.865 47.0208 166.219 49.3021 166.219 51.7812V52.4375C166.219 54.8958 165.865 57.1771 165.156 59.2812C164.448 61.3646 163.406 63.1875 162.031 64.75C160.677 66.2917 159.01 67.4896 157.031 68.3438C155.052 69.1979 152.781 69.625 150.219 69.625C147.656 69.625 145.375 69.1979 143.375 68.3438C141.396 67.4896 139.719 66.2917 138.344 64.75C136.99 63.1875 135.958 61.3646 135.25 59.2812C134.542 57.1771 134.188 54.8958 134.188 52.4375ZM143.188 51.7812V52.4375C143.188 53.8542 143.312 55.1771 143.562 56.4062C143.812 57.6354 144.208 58.7188 144.75 59.6562C145.312 60.5729 146.042 61.2917 146.938 61.8125C147.833 62.3333 148.927 62.5938 150.219 62.5938C151.469 62.5938 152.542 62.3333 153.438 61.8125C154.333 61.2917 155.052 60.5729 155.594 59.6562C156.135 58.7188 156.531 57.6354 156.781 56.4062C157.052 55.1771 157.188 53.8542 157.188 52.4375V51.7812C157.188 50.4062 157.052 49.1146 156.781 47.9062C156.531 46.6771 156.125 45.5938 155.562 44.6562C155.021 43.6979 154.302 42.9479 153.406 42.4062C152.51 41.8646 151.427 41.5938 150.156 41.5938C148.885 41.5938 147.802 41.8646 146.906 42.4062C146.031 42.9479 145.312 43.6979 144.75 44.6562C144.208 45.5938 143.812 46.6771 143.562 47.9062C143.312 49.1146 143.188 50.4062 143.188 51.7812ZM181.25 21V69H172.219V21H181.25Z" fill="white"/>
<path d="M202.859 0.75L215.703 24.5625L228.547 0.75H244.625L224.797 34.5938L245.141 69H228.922L215.703 44.7188L202.484 69H186.172L206.562 34.5938L186.688 0.75H202.859Z" fill="#FF5252"/>
</svg>
